<svg width="31" height="30" viewBox="0 0 31 30" fill="none" xmlns="http://www.w3.org/2000/svg">
<path d="M28.3186 30H3.24891C1.86632 30 0.741943 28.3181 0.741943 26.25V3.75C0.741943 1.68187 1.86632 0 3.24891 0H28.3186C29.7012 0 30.8255 1.68187 30.8255 3.75V26.25C30.8255 28.3181 29.7012 30 28.3186 30ZM3.24891 1.875C2.55761 1.875 1.99543 2.71594 1.99543 3.75V26.25C1.99543 27.2841 2.55761 28.125 3.24891 28.125H28.3186C29.0099 28.125 29.572 27.2841 29.572 26.25V3.75C29.572 2.71594 29.0099 1.875 28.3186 1.875H3.24891Z" fill="black"/>
<path d="M15.7838 19.8665L4.78888 9.22497C4.49807 8.94278 4.41471 8.36341 4.60273 7.92841C4.79076 7.49341 5.17871 7.36966 5.46952 7.64997L15.7838 17.6334L26.0981 7.64997C26.3889 7.36966 26.7768 7.49341 26.9649 7.92841C27.1529 8.36341 27.0695 8.94278 26.7787 9.22497L15.7838 19.8665Z" fill="black"/>
<path d="M4.50306 24.375C4.30063 24.375 4.10132 24.2288 3.98099 23.9579C3.78858 23.5266 3.86629 22.9454 4.15459 22.6575L9.79527 17.0325C10.0836 16.7447 10.4728 16.861 10.6646 17.2922C10.857 17.7235 10.7793 18.3047 10.491 18.5925L4.85028 24.2175C4.7431 24.3235 4.62214 24.375 4.50306 24.375Z" fill="black"/>
<path d="M27.0645 24.375C26.9454 24.375 26.8244 24.3235 26.7173 24.2175L21.0766 18.5925C20.7883 18.3047 20.7106 17.7235 20.903 17.2922C21.0948 16.861 21.4833 16.7447 21.7723 17.0325L27.4129 22.6575C27.7012 22.9454 27.779 23.5266 27.5866 23.9579C27.4662 24.2288 27.2669 24.375 27.0645 24.375Z" fill="black"/>
</svg>
